<?xml version="1.0" standalone="no"?>
<!DOCTYPE svg PUBLIC "-//W3C//DTD SVG 20010904//EN"
 "http://www.w3.org/TR/2001/REC-SVG-20010904/DTD/svg10.dtd">
<svg version="1.0" xmlns="http://www.w3.org/2000/svg"
 width="225.000000pt" height="225.000000pt" viewBox="0 0 225.000000 225.000000"
 preserveAspectRatio="xMidYMid meet">

<g transform="translate(0.000000,225.000000) scale(0.100000,-0.100000)"
fill="#000000" stroke="none">
<path d="M955 2226 c-483 -80 -853 -448 -931 -925 -22 -135 -14 -323 20 -454
49 -190 153 -371 293 -510 106 -105 169 -149 298 -213 155 -76 267 -104 437
-111 151 -6 240 4 376 43 407 118 720 480 782 905 19 127 8 320 -23 442 -106
403 -429 716 -837 808 -111 25 -310 33 -415 15z m793 -402 c-44 -41 -49 -78
-22 -157 10 -29 14 -66 11 -95 -2 -26 0 -121 5 -212 12 -200 4 -243 -49 -248
-25 -2 -35 2 -48 21 -14 21 -16 58 -14 258 2 161 7 246 16 273 14 41 17 86 7
86 -10 0 -188 -135 -204 -154 -11 -14 -10 -29 9 -95 13 -51 19 -90 15 -112
-13 -65 -52 -127 -108 -169 -66 -50 -86 -79 -86 -122 0 -44 26 -81 91 -129
130 -97 162 -150 162 -264 0 -151 -89 -249 -268 -295 -185 -47 -397 -8 -503
93 -47 45 -62 78 -62 137 0 157 186 289 408 290 35 0 62 3 60 8 -32 61 -40 91
-36 138 l4 51 -63 6 c-151 14 -257 111 -279 254 l-6 43 -156 0 -157 0 30 29
c17 16 127 113 245 215 l215 186 410 0 410 0 -37 -36z"/>
<path d="M1050 1667 c-45 -11 -78 -41 -101 -92 -64 -139 44 -364 195 -406 108
-30 212 100 191 239 -24 168 -160 292 -285 259z"/>
<path d="M1037 880 c-172 -44 -246 -195 -155 -321 108 -150 458 -140 532 16
18 38 21 120 5 162 -15 41 -67 91 -124 121 -40 20 -67 26 -135 28 -47 2 -102
-1 -123 -6z"/>
</g>
</svg>
